<svg xmlns="http://www.w3.org/2000/svg" xmlns:xlink="http://www.w3.org/1999/xlink" width="500" zoomAndPan="magnify" viewBox="0 0 375 374.999991" height="500" preserveAspectRatio="xMidYMid meet" version="1.0"><defs><g/><clipPath id="5c14510e7e"><path d="M 132.15625 123 L 143 123 L 143 149 L 132.15625 149 Z M 132.15625 123 " clip-rule="nonzero"/></clipPath><clipPath id="d77dcda763"><path d="M 132.15625 116 L 149 116 L 149 157 L 132.15625 157 Z M 132.15625 116 " clip-rule="nonzero"/></clipPath><clipPath id="78149a559e"><path d="M 132.15625 112 L 153 112 L 153 161 L 132.15625 161 Z M 132.15625 112 " clip-rule="nonzero"/></clipPath><clipPath id="c75f5fa8a8"><path d="M 180 99.804688 L 229 99.804688 L 229 195 L 180 195 Z M 180 99.804688 " clip-rule="nonzero"/></clipPath><clipPath id="4e5901a63c"><path d="M 239 154 L 243.15625 154 L 243.15625 173 L 239 173 Z M 239 154 " clip-rule="nonzero"/></clipPath><clipPath id="e5fbe94808"><path d="M 185 99.804688 L 235 99.804688 L 235 189 L 185 189 Z M 185 99.804688 " clip-rule="nonzero"/></clipPath><clipPath id="8b57fc766c"><path d="M 188 178 L 218 178 L 218 210.054688 L 188 210.054688 Z M 188 178 " clip-rule="nonzero"/></clipPath><clipPath id="771e95b690"><path d="M 154 155 L 156 155 L 156 158 L 154 158 Z M 154 155 " clip-rule="nonzero"/></clipPath><clipPath id="cdb63f682c"><path d="M 153.726562 156.394531 L 155.480469 154.984375 L 156.417969 156.152344 L 154.667969 157.5625 Z M 153.726562 156.394531 " clip-rule="nonzero"/></clipPath><clipPath id="47183771d0"><path d="M 153.726562 156.394531 L 173.011719 140.878906 L 173.949219 142.046875 L 154.667969 157.5625 Z M 153.726562 156.394531 " clip-rule="nonzero"/></clipPath></defs><rect x="-37.5" width="450" fill="#ffffff" y="-37.499999" height="449.999989" fill-opacity="1"/><rect x="-37.5" width="450" fill="#ffffff" y="-37.499999" height="449.999989" fill-opacity="1"/><g fill="#0c0c0c" fill-opacity="1"><g transform="translate(104.269819, 249.510612)"><g><path d="M 1.109375 -26.4375 L 1.109375 -26.921875 L 11.59375 -26.921875 C 12.96875 -26.921875 14.3125 -26.851562 15.625 -26.71875 C 16.945312 -26.582031 18.148438 -26.289062 19.234375 -25.84375 C 20.316406 -25.40625 21.175781 -24.75 21.8125 -23.875 C 22.457031 -23 22.78125 -21.820312 22.78125 -20.34375 C 22.78125 -18.894531 22.476562 -17.722656 21.875 -16.828125 C 21.269531 -15.941406 20.484375 -15.265625 19.515625 -14.796875 C 18.546875 -14.335938 17.492188 -14.023438 16.359375 -13.859375 C 15.222656 -13.703125 14.113281 -13.625 13.03125 -13.625 L 7.71875 -13.625 L 7.71875 -2.46875 C 7.71875 -1.632812 7.925781 -1.09375 8.34375 -0.84375 C 8.757812 -0.601562 9.398438 -0.484375 10.265625 -0.484375 L 10.265625 0 L 1.109375 0 L 1.109375 -0.484375 C 1.972656 -0.484375 2.613281 -0.601562 3.03125 -0.84375 C 3.445312 -1.09375 3.65625 -1.632812 3.65625 -2.46875 L 3.65625 -24.4375 C 3.65625 -25.300781 3.445312 -25.847656 3.03125 -26.078125 C 2.613281 -26.316406 1.972656 -26.4375 1.109375 -26.4375 Z M 11.59375 -26.4375 L 7.71875 -26.4375 L 7.71875 -14.109375 L 11.671875 -14.109375 C 13.296875 -14.109375 14.625 -14.269531 15.65625 -14.59375 C 16.6875 -14.925781 17.453125 -15.519531 17.953125 -16.375 C 18.460938 -17.226562 18.71875 -18.40625 18.71875 -19.90625 C 18.71875 -24.257812 16.34375 -26.4375 11.59375 -26.4375 Z M 11.59375 -26.4375 "/></g></g></g><g fill="#0c0c0c" fill-opacity="1"><g transform="translate(128.706878, 249.510612)"><g><path d="M 1.109375 0 L 1.109375 -0.484375 C 1.972656 -0.484375 2.613281 -0.601562 3.03125 -0.84375 C 3.445312 -1.09375 3.65625 -1.632812 3.65625 -2.46875 L 3.65625 -24.4375 C 3.65625 -25.300781 3.445312 -25.847656 3.03125 -26.078125 C 2.613281 -26.316406 1.972656 -26.4375 1.109375 -26.4375 L 1.109375 -26.921875 L 11.59375 -26.921875 C 12.96875 -26.921875 14.3125 -26.851562 15.625 -26.71875 C 16.945312 -26.582031 18.144531 -26.289062 19.21875 -25.84375 C 20.289062 -25.40625 21.144531 -24.75 21.78125 -23.875 C 22.425781 -23 22.75 -21.820312 22.75 -20.34375 C 22.75 -18.894531 22.453125 -17.722656 21.859375 -16.828125 C 21.265625 -15.941406 20.484375 -15.265625 19.515625 -14.796875 C 18.546875 -14.335938 17.492188 -14.023438 16.359375 -13.859375 C 15.222656 -13.703125 14.113281 -13.625 13.03125 -13.625 L 11.484375 -13.625 C 11.972656 -12.863281 12.519531 -12.300781 13.125 -11.9375 C 13.726562 -11.582031 14.328125 -11.40625 14.921875 -11.40625 C 15.609375 -11.40625 16.25 -11.640625 16.84375 -12.109375 L 23.484375 -2.46875 C 24.046875 -1.6875 24.632812 -1.160156 25.25 -0.890625 C 25.863281 -0.617188 26.519531 -0.484375 27.21875 -0.484375 L 27.21875 0 L 23.5625 0 C 22.550781 0 21.671875 -0.210938 20.921875 -0.640625 C 20.171875 -1.078125 19.507812 -1.617188 18.9375 -2.265625 C 18.375 -2.921875 17.859375 -3.582031 17.390625 -4.25 L 10.921875 -13.625 L 7.71875 -13.625 L 7.71875 -2.46875 C 7.71875 -1.632812 7.921875 -1.09375 8.328125 -0.84375 C 8.734375 -0.601562 9.378906 -0.484375 10.265625 -0.484375 L 10.265625 0 Z M 7.71875 -14.109375 L 11.625 -14.109375 C 12.9375 -14.109375 14.125 -14.28125 15.1875 -14.625 C 16.257812 -14.96875 17.113281 -15.585938 17.75 -16.484375 C 18.394531 -17.378906 18.71875 -18.65625 18.71875 -20.3125 C 18.71875 -22.300781 18.160156 -23.816406 17.046875 -24.859375 C 15.941406 -25.910156 14.367188 -26.4375 12.328125 -26.4375 L 7.71875 -26.4375 Z M 7.71875 -14.109375 "/></g></g></g><g fill="#0c0c0c" fill-opacity="1"><g transform="translate(156.281633, 249.510612)"><g><path d="M 6.3125 0 L 0.546875 0 L 0.546875 -0.484375 C 1.171875 -0.484375 1.796875 -0.703125 2.421875 -1.140625 C 3.046875 -1.585938 3.492188 -2.144531 3.765625 -2.8125 L 11.8125 -22.078125 L 10.78125 -24.59375 C 10.488281 -25.332031 10.03125 -25.820312 9.40625 -26.0625 C 8.789062 -26.3125 8.117188 -26.4375 7.390625 -26.4375 L 7.390625 -26.921875 L 13.84375 -26.921875 L 23.5625 -3.734375 C 24.070312 -2.523438 24.640625 -1.679688 25.265625 -1.203125 C 25.898438 -0.722656 26.671875 -0.484375 27.578125 -0.484375 L 27.578125 0 L 17.203125 0 L 17.203125 -0.484375 L 18.203125 -0.484375 C 19.160156 -0.484375 19.707031 -0.796875 19.84375 -1.421875 C 19.976562 -2.046875 19.863281 -2.800781 19.5 -3.6875 L 17.390625 -8.828125 L 6.75 -8.828125 L 4.3125 -2.953125 C 4 -2.160156 4.0625 -1.550781 4.5 -1.125 C 4.945312 -0.695312 5.550781 -0.484375 6.3125 -0.484375 Z M 12.078125 -21.53125 L 6.984375 -9.296875 L 17.171875 -9.296875 Z M 12.078125 -21.53125 "/></g></g></g><g fill="#0c0c0c" fill-opacity="1"><g transform="translate(184.410087, 249.510612)"><g><path d="M 1.21875 -19.9375 L 0.734375 -19.9375 L 1.953125 -26.921875 L 25.359375 -26.921875 L 26.578125 -19.9375 L 26.109375 -19.9375 C 25.804688 -21.582031 25.296875 -22.878906 24.578125 -23.828125 C 23.867188 -24.773438 22.984375 -25.445312 21.921875 -25.84375 C 20.867188 -26.238281 19.675781 -26.4375 18.34375 -26.4375 L 15.6875 -26.4375 L 15.6875 -2.46875 C 15.6875 -1.632812 15.894531 -1.09375 16.3125 -0.84375 C 16.738281 -0.601562 17.394531 -0.484375 18.28125 -0.484375 L 18.28125 0 L 9.078125 0 L 9.078125 -0.484375 C 9.960938 -0.484375 10.609375 -0.601562 11.015625 -0.84375 C 11.421875 -1.09375 11.625 -1.632812 11.625 -2.46875 L 11.625 -26.4375 L 8.9375 -26.4375 C 7.632812 -26.4375 6.453125 -26.238281 5.390625 -25.84375 C 4.328125 -25.445312 3.445312 -24.773438 2.75 -23.828125 C 2.050781 -22.878906 1.539062 -21.582031 1.21875 -19.9375 Z M 1.21875 -19.9375 "/></g></g></g><g fill="#0c0c0c" fill-opacity="1"><g transform="translate(211.726435, 249.510612)"><g><path d="M 1.484375 -26.4375 L 1.484375 -26.921875 L 10.78125 -26.921875 L 10.78125 -26.4375 C 9.894531 -26.4375 9.234375 -26.316406 8.796875 -26.078125 C 8.367188 -25.847656 8.15625 -25.226562 8.15625 -24.21875 L 8.15625 -9.59375 C 8.15625 -6.519531 8.789062 -4.21875 10.0625 -2.6875 C 11.332031 -1.164062 13.070312 -0.40625 15.28125 -0.40625 C 16.863281 -0.40625 18.25 -0.660156 19.4375 -1.171875 C 20.632812 -1.691406 21.578125 -2.597656 22.265625 -3.890625 C 22.953125 -5.179688 23.296875 -7 23.296875 -9.34375 L 23.296875 -24.59375 C 23.242188 -25.40625 23.003906 -25.914062 22.578125 -26.125 C 22.148438 -26.332031 21.515625 -26.4375 20.671875 -26.4375 L 20.671875 -26.921875 L 26.40625 -26.921875 L 26.40625 -26.4375 C 25.707031 -26.4375 25.09375 -26.316406 24.5625 -26.078125 C 24.039062 -25.847656 23.78125 -25.226562 23.78125 -24.21875 L 23.78125 -9.34375 C 23.78125 -8.625 23.726562 -7.832031 23.625 -6.96875 C 23.53125 -6.113281 23.3125 -5.25 22.96875 -4.375 C 22.625 -3.5 22.113281 -2.695312 21.4375 -1.96875 C 20.757812 -1.25 19.847656 -0.664062 18.703125 -0.21875 C 17.554688 0.21875 16.125 0.4375 14.40625 0.4375 C 11.789062 0.4375 9.734375 0.00390625 8.234375 -0.859375 C 6.734375 -1.734375 5.664062 -2.925781 5.03125 -4.4375 C 4.40625 -5.957031 4.09375 -7.675781 4.09375 -9.59375 L 4.09375 -24.21875 C 4.09375 -25.226562 3.878906 -25.847656 3.453125 -26.078125 C 3.023438 -26.316406 2.367188 -26.4375 1.484375 -26.4375 Z M 1.484375 -26.4375 "/></g></g></g><g fill="#0c0c0c" fill-opacity="1"><g transform="translate(239.042782, 249.510612)"><g><path d="M 0.921875 -26.4375 L 0.921875 -26.921875 L 7.71875 -26.921875 L 15.984375 -5.765625 L 23.890625 -26.921875 L 30.578125 -26.921875 L 30.578125 -26.4375 C 29.710938 -26.4375 29.0625 -26.347656 28.625 -26.171875 C 28.195312 -26.003906 27.972656 -25.460938 27.953125 -24.546875 L 27.953125 -2.515625 C 27.953125 -1.523438 28.164062 -0.9375 28.59375 -0.75 C 29.03125 -0.570312 29.691406 -0.484375 30.578125 -0.484375 L 30.578125 0 L 21.265625 0 L 21.265625 -0.484375 C 22.148438 -0.484375 22.804688 -0.570312 23.234375 -0.75 C 23.671875 -0.9375 23.890625 -1.523438 23.890625 -2.515625 L 23.890625 -25.46875 L 14.359375 0 L 13.84375 0 L 4.578125 -24.078125 C 4.554688 -24.117188 4.535156 -24.164062 4.515625 -24.21875 C 4.503906 -24.269531 4.488281 -24.304688 4.46875 -24.328125 L 4.46875 -2.40625 C 4.488281 -1.488281 4.710938 -0.9375 5.140625 -0.75 C 5.578125 -0.570312 6.226562 -0.484375 7.09375 -0.484375 L 7.09375 0 L 1.359375 0 L 1.359375 -0.484375 C 2.242188 -0.484375 2.898438 -0.570312 3.328125 -0.75 C 3.765625 -0.9375 3.984375 -1.523438 3.984375 -2.515625 L 3.984375 -25.296875 C 3.660156 -25.785156 3.269531 -26.097656 2.8125 -26.234375 C 2.363281 -26.367188 1.734375 -26.4375 0.921875 -26.4375 Z M 0.921875 -26.4375 "/></g></g></g><g fill="#ae873b" fill-opacity="1"><g transform="translate(132.454521, 272.885284)"><g><path d="M 4.140625 -2.890625 L 4.140625 -2.203125 L 0.421875 -2.203125 L 0.421875 -2.890625 Z M 4.140625 -2.890625 "/></g></g></g><g fill="#ae873b" fill-opacity="1"><g transform="translate(139.379572, 272.885284)"><g><path d="M 2.765625 -6.859375 C 2.359375 -6.859375 2.15625 -6.703125 2.15625 -6.390625 C 2.15625 -6.335938 2.164062 -6.28125 2.1875 -6.21875 C 2.21875 -6.15625 2.238281 -6.085938 2.25 -6.015625 L 4.171875 -1.40625 C 4.179688 -1.363281 4.203125 -1.34375 4.234375 -1.34375 C 4.273438 -1.34375 4.3125 -1.363281 4.34375 -1.40625 L 5.453125 -4.015625 L 4.46875 -6.359375 C 4.40625 -6.515625 4.15625 -6.660156 3.71875 -6.796875 C 3.59375 -6.835938 3.507812 -6.859375 3.46875 -6.859375 C 3.425781 -6.859375 3.40625 -6.867188 3.40625 -6.890625 L 3.40625 -7.015625 C 3.40625 -7.046875 3.421875 -7.0625 3.453125 -7.0625 L 8.03125 -7.0625 C 8.0625 -7.0625 8.078125 -7.046875 8.078125 -7.015625 L 8.078125 -6.890625 C 8.078125 -6.867188 8.0625 -6.859375 8.03125 -6.859375 L 7.84375 -6.859375 C 7.53125 -6.859375 7.285156 -6.703125 7.109375 -6.390625 C 7.054688 -6.273438 7 -6.148438 6.9375 -6.015625 L 6.296875 -4.484375 L 7.578125 -1.40625 C 7.585938 -1.363281 7.609375 -1.34375 7.640625 -1.34375 C 7.679688 -1.34375 7.71875 -1.363281 7.75 -1.40625 L 9.859375 -6.390625 C 9.898438 -6.484375 9.921875 -6.566406 9.921875 -6.640625 C 9.921875 -6.785156 9.726562 -6.859375 9.34375 -6.859375 L 9.03125 -6.859375 C 9.007812 -6.859375 9 -6.867188 9 -6.890625 L 9 -7.015625 C 9 -7.046875 9.007812 -7.0625 9.03125 -7.0625 L 11.265625 -7.0625 C 11.285156 -7.0625 11.296875 -7.046875 11.296875 -7.015625 L 11.296875 -6.890625 C 11.296875 -6.867188 11.285156 -6.859375 11.265625 -6.859375 L 11.03125 -6.859375 C 10.882812 -6.859375 10.769531 -6.804688 10.6875 -6.703125 C 10.613281 -6.597656 10.507812 -6.390625 10.375 -6.078125 L 7.796875 -0.046875 C 7.765625 0.0351562 7.726562 0.0859375 7.6875 0.109375 C 7.644531 0.128906 7.585938 0.140625 7.515625 0.140625 L 7.28125 0.140625 C 7.195312 0.140625 7.140625 0.101562 7.109375 0.03125 L 5.765625 -3.25 L 4.40625 -0.046875 C 4.363281 0.0351562 4.320312 0.0859375 4.28125 0.109375 C 4.238281 0.128906 4.179688 0.140625 4.109375 0.140625 L 3.875 0.140625 C 3.789062 0.140625 3.738281 0.0976562 3.71875 0.015625 L 1.0625 -6.359375 C 1.007812 -6.492188 0.84375 -6.609375 0.5625 -6.703125 C 0.289062 -6.804688 0.117188 -6.859375 0.046875 -6.859375 C -0.015625 -6.859375 -0.046875 -6.867188 -0.046875 -6.890625 L -0.046875 -7.015625 C -0.046875 -7.046875 -0.03125 -7.0625 0 -7.0625 L 2.859375 -7.0625 C 2.878906 -7.0625 2.890625 -7.046875 2.890625 -7.015625 L 2.890625 -6.890625 C 2.890625 -6.867188 2.878906 -6.859375 2.859375 -6.859375 Z M 6.515625 -6.625 C 6.515625 -6.757812 6.375 -6.835938 6.09375 -6.859375 C 5.800781 -6.835938 5.628906 -6.734375 5.578125 -6.546875 C 5.566406 -6.492188 5.5625 -6.441406 5.5625 -6.390625 C 5.5625 -6.335938 5.570312 -6.28125 5.59375 -6.21875 C 5.613281 -6.15625 5.632812 -6.085938 5.65625 -6.015625 L 5.96875 -5.25 L 6.453125 -6.390625 C 6.492188 -6.484375 6.515625 -6.5625 6.515625 -6.625 Z M 6.515625 -6.625 "/></g></g></g><g fill="#ae873b" fill-opacity="1"><g transform="translate(153.051061, 272.885284)"><g><path d="M 6.421875 -0.4375 C 6.128906 -0.257812 5.8125 -0.117188 5.46875 -0.015625 C 5.125 0.0859375 4.816406 0.140625 4.546875 0.140625 C 4.003906 0.140625 3.484375 0.0507812 2.984375 -0.125 C 2.304688 -0.375 1.757812 -0.738281 1.34375 -1.21875 C 0.8125 -1.84375 0.546875 -2.628906 0.546875 -3.578125 C 0.546875 -4.253906 0.722656 -4.875 1.078125 -5.4375 C 1.429688 -6 1.914062 -6.441406 2.53125 -6.765625 C 3.144531 -7.097656 3.804688 -7.265625 4.515625 -7.265625 C 5.234375 -7.265625 5.875 -7.101562 6.4375 -6.78125 C 7 -6.46875 7.453125 -6.035156 7.796875 -5.484375 C 8.140625 -4.929688 8.3125 -4.332031 8.3125 -3.6875 C 8.3125 -3.039062 8.140625 -2.425781 7.796875 -1.84375 C 7.460938 -1.257812 7.003906 -0.789062 6.421875 -0.4375 Z M 1.609375 -3.734375 C 1.609375 -3.179688 1.726562 -2.628906 1.96875 -2.078125 C 2.21875 -1.535156 2.566406 -1.09375 3.015625 -0.75 C 3.472656 -0.40625 4.003906 -0.234375 4.609375 -0.234375 C 5.460938 -0.234375 6.128906 -0.5625 6.609375 -1.21875 C 7.035156 -1.8125 7.25 -2.566406 7.25 -3.484375 C 7.25 -4.398438 6.988281 -5.1875 6.46875 -5.84375 C 6.207031 -6.175781 5.890625 -6.4375 5.515625 -6.625 C 5.140625 -6.820312 4.765625 -6.921875 4.390625 -6.921875 C 4.015625 -6.921875 3.703125 -6.878906 3.453125 -6.796875 C 3.210938 -6.710938 2.992188 -6.597656 2.796875 -6.453125 C 2.597656 -6.304688 2.425781 -6.132812 2.28125 -5.9375 C 2.132812 -5.738281 2.007812 -5.519531 1.90625 -5.28125 C 1.707031 -4.800781 1.609375 -4.285156 1.609375 -3.734375 Z M 1.609375 -3.734375 "/></g></g></g><g fill="#ae873b" fill-opacity="1"><g transform="translate(164.262027, 272.885284)"><g><path d="M 6.421875 -0.4375 C 6.128906 -0.257812 5.8125 -0.117188 5.46875 -0.015625 C 5.125 0.0859375 4.816406 0.140625 4.546875 0.140625 C 4.003906 0.140625 3.484375 0.0507812 2.984375 -0.125 C 2.304688 -0.375 1.757812 -0.738281 1.34375 -1.21875 C 0.8125 -1.84375 0.546875 -2.628906 0.546875 -3.578125 C 0.546875 -4.253906 0.722656 -4.875 1.078125 -5.4375 C 1.429688 -6 1.914062 -6.441406 2.53125 -6.765625 C 3.144531 -7.097656 3.804688 -7.265625 4.515625 -7.265625 C 5.234375 -7.265625 5.875 -7.101562 6.4375 -6.78125 C 7 -6.46875 7.453125 -6.035156 7.796875 -5.484375 C 8.140625 -4.929688 8.3125 -4.332031 8.3125 -3.6875 C 8.3125 -3.039062 8.140625 -2.425781 7.796875 -1.84375 C 7.460938 -1.257812 7.003906 -0.789062 6.421875 -0.4375 Z M 1.609375 -3.734375 C 1.609375 -3.179688 1.726562 -2.628906 1.96875 -2.078125 C 2.21875 -1.535156 2.566406 -1.09375 3.015625 -0.75 C 3.472656 -0.40625 4.003906 -0.234375 4.609375 -0.234375 C 5.460938 -0.234375 6.128906 -0.5625 6.609375 -1.21875 C 7.035156 -1.8125 7.25 -2.566406 7.25 -3.484375 C 7.25 -4.398438 6.988281 -5.1875 6.46875 -5.84375 C 6.207031 -6.175781 5.890625 -6.4375 5.515625 -6.625 C 5.140625 -6.820312 4.765625 -6.921875 4.390625 -6.921875 C 4.015625 -6.921875 3.703125 -6.878906 3.453125 -6.796875 C 3.210938 -6.710938 2.992188 -6.597656 2.796875 -6.453125 C 2.597656 -6.304688 2.425781 -6.132812 2.28125 -5.9375 C 2.132812 -5.738281 2.007812 -5.519531 1.90625 -5.28125 C 1.707031 -4.800781 1.609375 -4.285156 1.609375 -3.734375 Z M 1.609375 -3.734375 "/></g></g></g><g fill="#ae873b" fill-opacity="1"><g transform="translate(175.472993, 272.885284)"><g><path d="M 0.21875 -7.03125 C 0.21875 -7.0625 0.234375 -7.078125 0.265625 -7.078125 L 0.375 -7.078125 L 1.984375 -7.109375 C 2.171875 -7.109375 2.378906 -7.109375 2.609375 -7.109375 L 3.234375 -7.109375 C 3.816406 -7.109375 4.253906 -7.085938 4.546875 -7.046875 C 4.835938 -7.003906 5.125 -6.953125 5.40625 -6.890625 C 5.6875 -6.835938 5.984375 -6.707031 6.296875 -6.5 C 6.617188 -6.289062 6.898438 -6.039062 7.140625 -5.75 C 7.628906 -5.125 7.875 -4.445312 7.875 -3.71875 C 7.875 -2.988281 7.6875 -2.335938 7.3125 -1.765625 C 6.757812 -0.921875 5.96875 -0.375 4.9375 -0.125 C 4.601562 -0.0390625 4.257812 0 3.90625 0 L 0.265625 0 C 0.234375 0 0.21875 -0.015625 0.21875 -0.046875 L 0.21875 -0.1875 C 0.21875 -0.207031 0.234375 -0.21875 0.265625 -0.21875 L 0.375 -0.21875 C 0.976562 -0.21875 1.28125 -0.410156 1.28125 -0.796875 L 1.28125 -6.28125 C 1.28125 -6.46875 1.207031 -6.609375 1.0625 -6.703125 C 0.925781 -6.804688 0.765625 -6.859375 0.578125 -6.859375 L 0.265625 -6.859375 C 0.234375 -6.859375 0.21875 -6.867188 0.21875 -6.890625 Z M 2.390625 -6.875 C 2.304688 -6.875 2.265625 -6.832031 2.265625 -6.75 L 2.265625 -0.625 C 2.265625 -0.375 2.492188 -0.242188 2.953125 -0.234375 C 3.085938 -0.234375 3.234375 -0.234375 3.390625 -0.234375 C 4.453125 -0.234375 5.285156 -0.53125 5.890625 -1.125 C 6.503906 -1.726562 6.8125 -2.523438 6.8125 -3.515625 C 6.8125 -4.503906 6.53125 -5.3125 5.96875 -5.9375 C 5.40625 -6.5625 4.664062 -6.875 3.75 -6.875 Z M 2.390625 -6.875 "/></g></g></g><g fill="#ae873b" fill-opacity="1"><g transform="translate(186.153846, 272.885284)"><g><path d="M 2.765625 -6.859375 C 2.359375 -6.859375 2.15625 -6.703125 2.15625 -6.390625 C 2.15625 -6.335938 2.164062 -6.28125 2.1875 -6.21875 C 2.21875 -6.15625 2.238281 -6.085938 2.25 -6.015625 L 4.171875 -1.40625 C 4.179688 -1.363281 4.203125 -1.34375 4.234375 -1.34375 C 4.273438 -1.34375 4.3125 -1.363281 4.34375 -1.40625 L 5.453125 -4.015625 L 4.46875 -6.359375 C 4.40625 -6.515625 4.15625 -6.660156 3.71875 -6.796875 C 3.59375 -6.835938 3.507812 -6.859375 3.46875 -6.859375 C 3.425781 -6.859375 3.40625 -6.867188 3.40625 -6.890625 L 3.40625 -7.015625 C 3.40625 -7.046875 3.421875 -7.0625 3.453125 -7.0625 L 8.03125 -7.0625 C 8.0625 -7.0625 8.078125 -7.046875 8.078125 -7.015625 L 8.078125 -6.890625 C 8.078125 -6.867188 8.0625 -6.859375 8.03125 -6.859375 L 7.84375 -6.859375 C 7.53125 -6.859375 7.285156 -6.703125 7.109375 -6.390625 C 7.054688 -6.273438 7 -6.148438 6.9375 -6.015625 L 6.296875 -4.484375 L 7.578125 -1.40625 C 7.585938 -1.363281 7.609375 -1.34375 7.640625 -1.34375 C 7.679688 -1.34375 7.71875 -1.363281 7.75 -1.40625 L 9.859375 -6.390625 C 9.898438 -6.484375 9.921875 -6.566406 9.921875 -6.640625 C 9.921875 -6.785156 9.726562 -6.859375 9.34375 -6.859375 L 9.03125 -6.859375 C 9.007812 -6.859375 9 -6.867188 9 -6.890625 L 9 -7.015625 C 9 -7.046875 9.007812 -7.0625 9.03125 -7.0625 L 11.265625 -7.0625 C 11.285156 -7.0625 11.296875 -7.046875 11.296875 -7.015625 L 11.296875 -6.890625 C 11.296875 -6.867188 11.285156 -6.859375 11.265625 -6.859375 L 11.03125 -6.859375 C 10.882812 -6.859375 10.769531 -6.804688 10.6875 -6.703125 C 10.613281 -6.597656 10.507812 -6.390625 10.375 -6.078125 L 7.796875 -0.046875 C 7.765625 0.0351562 7.726562 0.0859375 7.6875 0.109375 C 7.644531 0.128906 7.585938 0.140625 7.515625 0.140625 L 7.28125 0.140625 C 7.195312 0.140625 7.140625 0.101562 7.109375 0.03125 L 5.765625 -3.25 L 4.40625 -0.046875 C 4.363281 0.0351562 4.320312 0.0859375 4.28125 0.109375 C 4.238281 0.128906 4.179688 0.140625 4.109375 0.140625 L 3.875 0.140625 C 3.789062 0.140625 3.738281 0.0976562 3.71875 0.015625 L 1.0625 -6.359375 C 1.007812 -6.492188 0.84375 -6.609375 0.5625 -6.703125 C 0.289062 -6.804688 0.117188 -6.859375 0.046875 -6.859375 C -0.015625 -6.859375 -0.046875 -6.867188 -0.046875 -6.890625 L -0.046875 -7.015625 C -0.046875 -7.046875 -0.03125 -7.0625 0 -7.0625 L 2.859375 -7.0625 C 2.878906 -7.0625 2.890625 -7.046875 2.890625 -7.015625 L 2.890625 -6.890625 C 2.890625 -6.867188 2.878906 -6.859375 2.859375 -6.859375 Z M 6.515625 -6.625 C 6.515625 -6.757812 6.375 -6.835938 6.09375 -6.859375 C 5.800781 -6.835938 5.628906 -6.734375 5.578125 -6.546875 C 5.566406 -6.492188 5.5625 -6.441406 5.5625 -6.390625 C 5.5625 -6.335938 5.570312 -6.28125 5.59375 -6.21875 C 5.613281 -6.15625 5.632812 -6.085938 5.65625 -6.015625 L 5.96875 -5.25 L 6.453125 -6.390625 C 6.492188 -6.484375 6.515625 -6.5625 6.515625 -6.625 Z M 6.515625 -6.625 "/></g></g></g><g fill="#ae873b" fill-opacity="1"><g transform="translate(199.825335, 272.885284)"><g><path d="M 6.421875 -0.4375 C 6.128906 -0.257812 5.8125 -0.117188 5.46875 -0.015625 C 5.125 0.0859375 4.816406 0.140625 4.546875 0.140625 C 4.003906 0.140625 3.484375 0.0507812 2.984375 -0.125 C 2.304688 -0.375 1.757812 -0.738281 1.34375 -1.21875 C 0.8125 -1.84375 0.546875 -2.628906 0.546875 -3.578125 C 0.546875 -4.253906 0.722656 -4.875 1.078125 -5.4375 C 1.429688 -6 1.914062 -6.441406 2.53125 -6.765625 C 3.144531 -7.097656 3.804688 -7.265625 4.515625 -7.265625 C 5.234375 -7.265625 5.875 -7.101562 6.4375 -6.78125 C 7 -6.46875 7.453125 -6.035156 7.796875 -5.484375 C 8.140625 -4.929688 8.3125 -4.332031 8.3125 -3.6875 C 8.3125 -3.039062 8.140625 -2.425781 7.796875 -1.84375 C 7.460938 -1.257812 7.003906 -0.789062 6.421875 -0.4375 Z M 1.609375 -3.734375 C 1.609375 -3.179688 1.726562 -2.628906 1.96875 -2.078125 C 2.21875 -1.535156 2.566406 -1.09375 3.015625 -0.75 C 3.472656 -0.40625 4.003906 -0.234375 4.609375 -0.234375 C 5.460938 -0.234375 6.128906 -0.5625 6.609375 -1.21875 C 7.035156 -1.8125 7.25 -2.566406 7.25 -3.484375 C 7.25 -4.398438 6.988281 -5.1875 6.46875 -5.84375 C 6.207031 -6.175781 5.890625 -6.4375 5.515625 -6.625 C 5.140625 -6.820312 4.765625 -6.921875 4.390625 -6.921875 C 4.015625 -6.921875 3.703125 -6.878906 3.453125 -6.796875 C 3.210938 -6.710938 2.992188 -6.597656 2.796875 -6.453125 C 2.597656 -6.304688 2.425781 -6.132812 2.28125 -5.9375 C 2.132812 -5.738281 2.007812 -5.519531 1.90625 -5.28125 C 1.707031 -4.800781 1.609375 -4.285156 1.609375 -3.734375 Z M 1.609375 -3.734375 "/></g></g></g><g fill="#ae873b" fill-opacity="1"><g transform="translate(211.036299, 272.885284)"><g><path d="M 0.265625 0 C 0.234375 0 0.21875 -0.03125 0.21875 -0.09375 L 0.21875 -0.15625 C 0.21875 -0.1875 0.234375 -0.203125 0.265625 -0.203125 C 0.285156 -0.203125 0.316406 -0.203125 0.359375 -0.203125 C 0.398438 -0.210938 0.441406 -0.21875 0.484375 -0.21875 C 0.535156 -0.226562 0.582031 -0.238281 0.625 -0.25 C 0.664062 -0.257812 0.691406 -0.265625 0.703125 -0.265625 C 1.046875 -0.347656 1.21875 -0.539062 1.21875 -0.84375 L 1.21875 -6.140625 C 1.21875 -6.421875 1.101562 -6.625 0.875 -6.75 C 0.738281 -6.820312 0.59375 -6.859375 0.4375 -6.859375 L 0.234375 -6.859375 C 0.210938 -6.859375 0.203125 -6.867188 0.203125 -6.890625 L 0.203125 -7.015625 C 0.203125 -7.046875 0.222656 -7.0625 0.265625 -7.0625 L 3.015625 -7.125 L 3.515625 -7.125 C 4.109375 -7.09375 4.601562 -6.878906 5 -6.484375 C 5.394531 -6.097656 5.59375 -5.617188 5.59375 -5.046875 C 5.59375 -4.484375 5.359375 -4.039062 4.890625 -3.71875 C 4.742188 -3.625 4.582031 -3.539062 4.40625 -3.46875 L 5.921875 -0.984375 C 6.191406 -0.546875 6.546875 -0.238281 6.984375 -0.0625 C 7.023438 -0.0625 7.046875 -0.0390625 7.046875 0 C 7.046875 0.0820312 6.988281 0.125 6.875 0.125 C 6.125 0.125 5.523438 -0.160156 5.078125 -0.734375 C 4.984375 -0.859375 4.890625 -1 4.796875 -1.15625 L 3.5 -3.1875 L 2.3125 -3.25 L 2.265625 -3.25 C 2.210938 -3.25 2.1875 -3.222656 2.1875 -3.171875 L 2.1875 -0.859375 C 2.1875 -0.679688 2.238281 -0.546875 2.34375 -0.453125 C 2.445312 -0.367188 2.628906 -0.304688 2.890625 -0.265625 C 2.953125 -0.253906 3.03125 -0.238281 3.125 -0.21875 C 3.21875 -0.207031 3.28125 -0.203125 3.3125 -0.203125 C 3.351562 -0.203125 3.375 -0.1875 3.375 -0.15625 L 3.375 -0.046875 C 3.375 -0.015625 3.363281 0 3.34375 0 Z M 2.59375 -6.859375 C 2.550781 -6.859375 2.507812 -6.859375 2.46875 -6.859375 C 2.425781 -6.859375 2.367188 -6.859375 2.296875 -6.859375 C 2.222656 -6.859375 2.1875 -6.832031 2.1875 -6.78125 L 2.1875 -3.75 L 2.203125 -3.59375 C 2.210938 -3.519531 2.242188 -3.484375 2.296875 -3.484375 L 2.8125 -3.453125 C 3.75 -3.453125 4.3125 -3.785156 4.5 -4.453125 C 4.5625 -4.660156 4.59375 -4.898438 4.59375 -5.171875 C 4.59375 -5.703125 4.425781 -6.117188 4.09375 -6.421875 C 3.769531 -6.722656 3.351562 -6.875 2.84375 -6.875 C 2.800781 -6.875 2.757812 -6.875 2.71875 -6.875 C 2.675781 -6.875 2.632812 -6.867188 2.59375 -6.859375 Z M 2.59375 -6.859375 "/></g></g></g><g fill="#ae873b" fill-opacity="1"><g transform="translate(220.491887, 272.885284)"><g><path d="M 3.21875 -0.046875 C 3.21875 -0.015625 3.203125 0 3.171875 0 L 0.234375 0 C 0.210938 0 0.203125 -0.015625 0.203125 -0.046875 L 0.203125 -0.140625 C 0.203125 -0.160156 0.269531 -0.171875 0.40625 -0.171875 C 0.550781 -0.179688 0.722656 -0.234375 0.921875 -0.328125 C 1.128906 -0.429688 1.234375 -0.585938 1.234375 -0.796875 L 1.234375 -6.25 C 1.234375 -6.632812 0.898438 -6.84375 0.234375 -6.875 C 0.210938 -6.875 0.203125 -6.890625 0.203125 -6.921875 L 0.203125 -7.015625 C 0.203125 -7.046875 0.210938 -7.0625 0.234375 -7.0625 L 3.171875 -7.0625 C 3.203125 -7.0625 3.21875 -7.046875 3.21875 -7.015625 L 3.21875 -6.921875 C 3.21875 -6.898438 3.144531 -6.890625 3 -6.890625 C 2.863281 -6.890625 2.710938 -6.847656 2.546875 -6.765625 C 2.328125 -6.660156 2.21875 -6.488281 2.21875 -6.25 L 2.21875 -4.03125 C 2.21875 -3.738281 2.242188 -3.59375 2.296875 -3.59375 C 2.441406 -3.59375 2.625 -3.679688 2.84375 -3.859375 C 3.0625 -4.046875 3.253906 -4.234375 3.421875 -4.421875 C 3.597656 -4.617188 3.769531 -4.847656 3.9375 -5.109375 C 4.113281 -5.378906 4.234375 -5.566406 4.296875 -5.671875 C 4.546875 -6.023438 4.671875 -6.289062 4.671875 -6.46875 C 4.671875 -6.644531 4.597656 -6.765625 4.453125 -6.828125 C 4.347656 -6.859375 4.203125 -6.875 4.015625 -6.875 L 3.96875 -6.875 C 3.9375 -6.875 3.921875 -6.890625 3.921875 -6.921875 L 3.921875 -7.015625 C 3.921875 -7.046875 3.9375 -7.0625 3.96875 -7.0625 L 6.859375 -7.0625 C 6.890625 -7.0625 6.90625 -7.046875 6.90625 -7.015625 L 6.90625 -6.921875 C 6.90625 -6.878906 6.882812 -6.859375 6.84375 -6.859375 C 6.414062 -6.847656 6.101562 -6.789062 5.90625 -6.6875 C 5.707031 -6.59375 5.546875 -6.488281 5.421875 -6.375 C 5.304688 -6.257812 5.179688 -6.082031 5.046875 -5.84375 C 4.617188 -5.113281 4.191406 -4.535156 3.765625 -4.109375 C 3.585938 -3.921875 3.492188 -3.804688 3.484375 -3.765625 C 3.503906 -3.734375 3.644531 -3.597656 3.90625 -3.359375 C 4.539062 -2.773438 5.210938 -1.976562 5.921875 -0.96875 C 6.179688 -0.59375 6.523438 -0.359375 6.953125 -0.265625 C 7.234375 -0.203125 7.410156 -0.171875 7.484375 -0.171875 C 7.566406 -0.171875 7.609375 -0.15625 7.609375 -0.125 L 7.609375 -0.046875 C 7.609375 -0.015625 7.59375 0 7.5625 0 L 4.296875 0 C 4.265625 0 4.25 -0.015625 4.25 -0.046875 L 4.25 -0.140625 C 4.25 -0.160156 4.304688 -0.175781 4.421875 -0.1875 C 4.796875 -0.21875 4.984375 -0.328125 4.984375 -0.515625 C 4.960938 -0.703125 4.628906 -1.164062 3.984375 -1.90625 C 3.859375 -2.039062 3.734375 -2.1875 3.609375 -2.34375 C 3.109375 -2.96875 2.691406 -3.28125 2.359375 -3.28125 L 2.265625 -3.28125 C 2.234375 -3.28125 2.21875 -3.253906 2.21875 -3.203125 L 2.21875 -0.859375 C 2.21875 -0.398438 2.535156 -0.171875 3.171875 -0.171875 C 3.203125 -0.171875 3.21875 -0.15625 3.21875 -0.125 Z M 3.21875 -0.046875 "/></g></g></g><g fill="#ae873b" fill-opacity="1"><g transform="translate(230.472588, 272.885284)"><g><path d="M 4.21875 -7 C 4.257812 -7 4.28125 -6.960938 4.28125 -6.890625 L 4.40625 -5.828125 C 4.414062 -5.753906 4.421875 -5.707031 4.421875 -5.6875 C 4.421875 -5.675781 4.394531 -5.671875 4.34375 -5.671875 C 4.289062 -5.671875 4.257812 -5.675781 4.25 -5.6875 C 4.238281 -5.695312 4.222656 -5.71875 4.203125 -5.75 C 4.191406 -5.78125 4.175781 -5.816406 4.15625 -5.859375 C 4.144531 -5.898438 4.128906 -5.941406 4.109375 -5.984375 C 4.035156 -6.140625 3.925781 -6.289062 3.78125 -6.4375 C 3.40625 -6.789062 2.988281 -6.96875 2.53125 -6.96875 C 2.25 -6.96875 1.984375 -6.875 1.734375 -6.6875 C 1.492188 -6.507812 1.375 -6.296875 1.375 -6.046875 C 1.375 -5.804688 1.421875 -5.597656 1.515625 -5.421875 C 1.609375 -5.242188 1.726562 -5.078125 1.875 -4.921875 C 2.03125 -4.765625 2.203125 -4.613281 2.390625 -4.46875 C 2.585938 -4.332031 2.785156 -4.191406 2.984375 -4.046875 C 3.515625 -3.679688 3.890625 -3.367188 4.109375 -3.109375 C 4.460938 -2.703125 4.65625 -2.242188 4.6875 -1.734375 C 4.6875 -1.160156 4.46875 -0.703125 4.03125 -0.359375 C 3.59375 -0.0234375 3.085938 0.140625 2.515625 0.140625 C 2.140625 0.140625 1.84375 0.0976562 1.625 0.015625 C 1.40625 -0.0546875 1.253906 -0.109375 1.171875 -0.140625 C 1.085938 -0.171875 1.023438 -0.1875 0.984375 -0.1875 C 0.953125 -0.1875 0.929688 -0.1875 0.921875 -0.1875 L 0.671875 -0.140625 C 0.628906 -0.140625 0.601562 -0.171875 0.59375 -0.234375 C 0.5 -1.066406 0.453125 -1.507812 0.453125 -1.5625 C 0.453125 -1.613281 0.453125 -1.644531 0.453125 -1.65625 C 0.460938 -1.675781 0.488281 -1.6875 0.53125 -1.6875 C 0.625 -1.6875 0.707031 -1.554688 0.78125 -1.296875 C 1.132812 -0.546875 1.71875 -0.171875 2.53125 -0.171875 C 2.90625 -0.171875 3.222656 -0.28125 3.484375 -0.5 C 3.753906 -0.726562 3.890625 -1.023438 3.890625 -1.390625 C 3.890625 -1.972656 3.539062 -2.515625 2.84375 -3.015625 C 2.644531 -3.148438 2.359375 -3.34375 1.984375 -3.59375 C 1.617188 -3.84375 1.328125 -4.09375 1.109375 -4.34375 C 0.765625 -4.738281 0.59375 -5.171875 0.59375 -5.640625 C 0.59375 -6.117188 0.78125 -6.507812 1.15625 -6.8125 C 1.539062 -7.113281 1.976562 -7.265625 2.46875 -7.265625 C 2.71875 -7.265625 2.992188 -7.21875 3.296875 -7.125 C 3.609375 -7.039062 3.820312 -6.988281 3.9375 -6.96875 Z M 4.21875 -7 "/></g></g></g><g fill="#ae873b" fill-opacity="1"><g transform="translate(237.962757, 272.885284)"><g><path d="M 4.140625 -2.890625 L 4.140625 -2.203125 L 0.421875 -2.203125 L 0.421875 -2.890625 Z M 4.140625 -2.890625 "/></g></g></g><g clip-path="url(#5c14510e7e)"><path fill="#ae873b" d="M 141.054688 145.007812 C 141.421875 144.304688 141.421875 142.964844 141.421875 142.152344 C 141.511719 140.019531 141.695312 138.050781 141.96875 135.921875 C 142.671875 131.480469 142.421875 127.46875 142.242188 123.277344 C 141.535156 124.433594 140.714844 125.589844 140.007812 126.746094 L 140.097656 127.105469 C 140.191406 128.804688 140.191406 130.484375 140.097656 132.183594 C 139.824219 136.101562 139.394531 140.089844 138.9375 144.007812 L 138.9375 144.191406 L 138.753906 144.28125 C 136.796875 144.984375 134.8125 145.707031 132.945312 146.5 C 132.761719 147.203125 132.671875 148.019531 132.582031 148.8125 C 133.289062 148.449219 133.925781 148.179688 134.632812 148.019531 C 135.976562 147.476562 140.257812 146.253906 141.078125 144.984375 Z M 141.054688 145.007812 " fill-opacity="1" fill-rule="nonzero"/></g><g clip-path="url(#d77dcda763)"><path fill="#ae873b" d="M 135.589844 154.183594 C 135.679688 154.089844 135.863281 154 135.863281 154 L 140.234375 151.78125 C 142.558594 150.625 145.339844 149.015625 146.410156 146.433594 C 147.046875 144.914062 147.117188 143.238281 147.117188 141.628906 C 147.207031 139.046875 147.117188 136.644531 147.296875 134.0625 C 147.570312 129.441406 148.460938 122.574219 148.097656 116.277344 C 147.296875 117.160156 146.476562 117.976562 145.679688 118.859375 C 145.679688 121.078125 145.589844 123.117188 145.5 124.726562 C 145.40625 129.351562 145.042969 133.972656 144.792969 138.617188 C 144.703125 140.566406 144.882812 144.757812 143.902344 146.457031 C 143.105469 147.882812 141.035156 148.859375 139.597656 149.558594 C 137.640625 150.535156 134.859375 151.871094 132.261719 153.390625 C 132.261719 153.933594 132.171875 154.453125 132.171875 154.996094 C 132.171875 155.542969 132.261719 155.789062 132.261719 156.152344 C 133.332031 155.542969 134.402344 154.90625 135.566406 154.203125 Z M 135.589844 154.183594 " fill-opacity="1" fill-rule="nonzero"/></g><g clip-path="url(#78149a559e)"><path fill="#ae873b" d="M 148.117188 153.820312 C 149.464844 153.183594 150.535156 152.390625 151.261719 151.054688 C 152.699219 148.199219 151.96875 143.125 152.058594 139.929688 C 152.425781 130.84375 152.699219 121.691406 152.242188 112.515625 C 151.445312 113.21875 150.625 113.851562 149.917969 114.554688 C 150.007812 116.773438 150.191406 118.996094 150.191406 121.214844 C 150.28125 125.839844 150.191406 130.460938 150.191406 135.105469 C 150.101562 138.050781 150.101562 141.0625 149.917969 144.007812 C 149.828125 145.707031 149.828125 148.019531 149.464844 149.605469 L 149.371094 149.695312 C 147.664062 152.097656 144.632812 152.460938 141.945312 153.253906 C 138.367188 154.316406 135.40625 155.746094 132.285156 157.695312 C 132.375 158.667969 132.46875 159.640625 132.558594 160.640625 C 133.265625 159.9375 133.992188 159.210938 134.972656 158.691406 C 139.347656 156.199219 143.652344 155.746094 148.117188 153.796875 Z M 148.117188 153.820312 " fill-opacity="1" fill-rule="nonzero"/></g><path fill="#ae873b" d="M 144.109375 161.296875 C 146.613281 160.503906 149.121094 159.867188 151.628906 159.257812 C 152.789062 158.984375 154.496094 158.621094 155.386719 157.828125 C 156.273438 156.945312 156.546875 155.429688 156.730469 154.183594 C 157.09375 151.507812 157.09375 148.496094 157.1875 145.730469 C 157.277344 140.042969 158.257812 122.144531 157.277344 108.890625 C 156.480469 109.34375 155.75 109.863281 154.953125 110.5 C 155.476562 120.015625 155.316406 129.710938 154.953125 139.25 C 154.863281 143.351562 154.863281 147.519531 154.679688 151.53125 C 154.589844 152.867188 154.589844 155.089844 153.519531 156.0625 C 152.628906 156.855469 150.464844 157.128906 149.304688 157.398438 C 146.089844 158.035156 143.128906 159.007812 140.167969 160.34375 C 137.386719 161.589844 135.0625 163.199219 133.289062 165.601562 C 133.5625 166.757812 133.742188 167.820312 133.992188 168.886719 C 135.953125 165.421875 138.914062 163.109375 144.109375 161.320312 Z M 144.109375 161.296875 " fill-opacity="1" fill-rule="nonzero"/><path fill="#ae873b" d="M 205.300781 119.289062 C 204.9375 123.480469 206.648438 130.324219 207.535156 134.582031 C 208.332031 138.414062 210.222656 142.242188 213.984375 143.738281 C 216.851562 144.894531 220.066406 144.441406 222.753906 143.035156 C 224.1875 142.152344 225.964844 140.453125 226.878906 139.023438 C 229.472656 134.921875 231.523438 129.507812 232.597656 124.886719 C 232.6875 124.25 232.867188 123.640625 232.960938 123.097656 C 232.4375 122.304688 231.890625 121.578125 231.34375 120.875 C 230.796875 123.277344 229.816406 125.679688 228.835938 128.445312 C 227.035156 133.246094 225.691406 139.75 219.972656 141.425781 C 216.125 143.035156 211.933594 140.722656 210.589844 136.984375 C 209.152344 133.15625 209.335938 128.988281 207.992188 125.15625 L 207.992188 125.066406 C 207.535156 117.679688 207.625 114.394531 214.257812 109.503906 C 215.054688 108.867188 215.875 108.4375 216.761719 107.984375 C 215.964844 107.441406 215.144531 107.007812 214.4375 106.554688 C 209.609375 109.503906 205.574219 114.734375 205.300781 119.289062 Z M 205.300781 119.289062 " fill-opacity="1" fill-rule="nonzero"/><path fill="#ae873b" d="M 200.90625 127.832031 C 201.269531 130.957031 201.792969 135.128906 202.707031 138.074219 C 204.753906 144.914062 206.28125 147.40625 213.164062 149.898438 C 216.648438 151.144531 220.226562 151.507812 223.550781 149.628906 C 230 145.890625 232.503906 135.308594 236.695312 129.441406 L 236.789062 129.351562 C 236.332031 128.558594 235.898438 127.742188 235.445312 126.949219 C 234.917969 127.742188 234.28125 128.464844 233.644531 129.441406 C 229.882812 134.945312 228.109375 145.097656 221.386719 147.859375 C 216.375 149.808594 209.496094 147.25 206.898438 142.605469 C 204.300781 137.890625 203.84375 131.570312 203.230469 126.3125 C 202.25 118.746094 201.339844 116.34375 206.351562 110.203125 C 208.148438 107.984375 209.3125 106.195312 210.726562 104.765625 C 210.085938 104.496094 209.378906 104.15625 208.765625 103.882812 C 205.097656 107.621094 200.8125 111.972656 200.175781 117.320312 C 199.8125 120.171875 200.539062 124.976562 200.882812 127.808594 Z M 200.90625 127.832031 " fill-opacity="1" fill-rule="nonzero"/><path fill="#ae873b" d="M 135.429688 142.082031 C 136.589844 140.292969 136.5 137.1875 136.226562 134.335938 C 135.0625 137.28125 134.085938 140.382812 133.355469 143.667969 C 134.152344 143.304688 134.882812 142.785156 135.40625 142.058594 Z M 135.429688 142.082031 " fill-opacity="1" fill-rule="nonzero"/><path fill="#ae873b" d="M 220.066406 130.503906 C 223.550781 128.714844 226.605469 115.28125 221.410156 114.941406 C 215.875 114.667969 214.6875 129.53125 220.066406 130.503906 Z M 220.863281 125.519531 L 220.5 127.558594 C 219.699219 127.105469 219.859375 127.652344 219.769531 128.445312 L 219.246094 125.589844 C 219.519531 122.394531 219.0625 120.785156 220.5 117.660156 L 220.679688 117.207031 L 221.046875 117.660156 C 222.390625 119.699219 221.226562 123.164062 220.863281 125.496094 Z M 220.863281 125.519531 " fill-opacity="1" fill-rule="nonzero"/><path fill="#ae873b" d="M 214.140625 113.242188 C 210.199219 117.679688 211.816406 121.601562 212 126.859375 C 212.183594 130.050781 211.542969 131.570312 213.253906 134.605469 C 217.992188 142.875 224.714844 135.148438 226.761719 129.257812 C 227.925781 125.972656 228.996094 121.871094 228.90625 118.132812 C 228.015625 117.070312 227.128906 116.1875 226.125 115.1875 C 227.742188 120.875 224.871094 131.390625 222.09375 133.609375 C 219.859375 137.4375 215.917969 134.945312 214.847656 131.570312 C 214.140625 128.714844 213.320312 120.171875 214.234375 117.523438 C 215.03125 114.941406 218.699219 111.65625 221.84375 111.472656 C 221.046875 110.863281 220.132812 110.226562 219.335938 109.683594 C 217.285156 110.386719 215.394531 111.8125 214.140625 113.242188 Z M 214.140625 113.242188 " fill-opacity="1" fill-rule="nonzero"/><path fill="#ae873b" d="M 191.429688 116.796875 C 190.8125 122.304688 190.722656 128.195312 191.335938 133.699219 C 192.316406 141.96875 195.1875 151.9375 202.433594 156.742188 C 205.644531 158.871094 209.496094 161.726562 213.253906 162.429688 C 222.296875 164.289062 230.15625 159.324219 234.554688 151.757812 C 236.421875 148.652344 238.132812 145.4375 240.023438 142.332031 C 240.386719 141.605469 240.730469 140.996094 241.183594 140.292969 C 240.910156 139.320312 240.546875 138.253906 240.203125 137.257812 C 239.660156 138.050781 239.132812 138.867188 238.585938 139.660156 C 236.96875 142.058594 235.625 144.824219 234.304688 147.40625 C 226.351562 162 217.671875 164.039062 203.800781 154.976562 C 190.996094 146.523438 193.957031 129.078125 194.140625 116.09375 C 194.140625 111.019531 196.734375 105.242188 200.496094 101.324219 C 199.699219 101.050781 198.785156 100.871094 197.898438 100.6875 C 196.464844 102.476562 195.300781 104.335938 194.414062 105.855469 C 192.703125 108.4375 191.90625 113.695312 191.449219 116.796875 Z M 191.429688 116.796875 " fill-opacity="1" fill-rule="nonzero"/><path fill="#ae873b" d="M 196.074219 127.832031 C 196.871094 133.519531 197.417969 142.332031 200.449219 147.226562 C 202.773438 151.054688 206.714844 153.183594 210.839844 154.792969 C 223.1875 159.597656 229.882812 151.054688 234.988281 141.359375 L 239.113281 134.335938 C 238.746094 133.359375 238.3125 132.476562 237.859375 131.480469 C 236.878906 133.089844 235.808594 134.675781 234.917969 136.464844 C 233.394531 139.320312 231.957031 142.152344 230.179688 144.824219 C 223.550781 154.882812 215.691406 156.921875 205.574219 149.355469 C 198.238281 143.851562 197.964844 126.3125 198.332031 117.953125 C 198.605469 111.632812 200.835938 106.464844 205.667969 102.726562 C 204.777344 102.457031 203.867188 102.183594 203.070312 101.933594 C 202.273438 102.636719 201.542969 103.363281 200.929688 104.0625 C 194.753906 111.449219 195.824219 118.835938 196.097656 127.832031 Z M 196.074219 127.832031 " fill-opacity="1" fill-rule="nonzero"/><path fill="#ae873b" d="M 159.851562 191.453125 C 160.214844 187.441406 160.832031 182.300781 155.203125 182.730469 C 152.605469 185.3125 152.425781 191.882812 153.769531 195.011719 C 154.222656 195.804688 154.839844 196.800781 155.910156 196.800781 C 158.050781 196.800781 159.578125 193.152344 159.851562 191.453125 Z M 157.070312 194.21875 L 156.980469 194.917969 L 156.527344 194.285156 C 155.089844 192.246094 154.816406 187.082031 156.433594 185.132812 L 156.707031 184.769531 L 156.890625 185.222656 C 157.960938 187.894531 157.34375 191.363281 157.070312 194.21875 Z M 157.070312 194.21875 " fill-opacity="1" fill-rule="nonzero"/><path fill="#ae873b" d="M 212.980469 176.339844 C 206.53125 176.070312 199.652344 176.613281 194.550781 171.808594 C 192.132812 169.5 191.769531 167.707031 190.425781 164.785156 C 189.171875 162.203125 187.917969 160.957031 185.777344 159.097656 C 184.34375 158.214844 181.3125 155.632812 180.308594 154.296875 C 177.1875 149.945312 176.550781 143.261719 176.460938 138.09375 C 176.367188 134.992188 176.460938 131.863281 176.550781 128.761719 C 176.640625 126.359375 176.640625 123.683594 176.367188 121.285156 C 176.09375 118.972656 175.117188 113.285156 175.84375 111.042969 C 176.210938 109.976562 177.097656 108.824219 177.644531 107.757812 C 178.988281 105.355469 180.058594 102.773438 181.039062 100.191406 C 180.332031 100.28125 179.511719 100.460938 178.804688 100.550781 C 178.53125 101.34375 178.101562 102.25 177.554688 103.316406 C 176.027344 106.421875 173.886719 108.121094 173.339844 111.859375 C 172.792969 115.507812 173.863281 118.972656 174.136719 122.53125 C 174.660156 133.382812 171.8125 147.089844 179.058594 156.335938 C 181.109375 159.007812 183.273438 159.800781 185.6875 161.929688 C 191.222656 166.734375 187.644531 171.628906 196.964844 176.339844 C 200.539062 178.199219 204.480469 178.46875 208.421875 178.46875 C 212.363281 178.46875 215.757812 178.289062 218.878906 179.445312 L 218.972656 179.445312 L 219.0625 179.535156 C 221.203125 183.273438 219.953125 189.777344 220.953125 194.035156 C 221.320312 195.464844 221.660156 196.890625 221.933594 198.296875 C 222.640625 197.75 223.277344 197.230469 223.894531 196.6875 C 223.1875 194.011719 222.640625 191.613281 222.457031 188.847656 C 221.75 179.242188 224.347656 176.75 212.980469 176.296875 Z M 212.980469 176.339844 " fill-opacity="1" fill-rule="nonzero"/><g clip-path="url(#c75f5fa8a8)"><path fill="#ae873b" d="M 227.21875 179.171875 C 226.945312 176.953125 226.605469 173.734375 224.894531 172.148438 C 223.367188 170.632812 220.863281 170.632812 218.8125 170.8125 C 213.800781 171.265625 207.171875 171.605469 202.339844 170.109375 C 199.378906 169.136719 197.238281 167.617188 195.800781 164.855469 C 193.84375 161.296875 193.660156 157.46875 190.882812 154.089844 C 187.828125 150.535156 185.960938 150.171875 184.34375 145.007812 C 183.089844 140.8125 183.089844 135.851562 183.179688 131.480469 C 183.273438 126.3125 182.292969 121.148438 182.566406 116.003906 C 182.746094 111.996094 185.34375 104.878906 188.558594 99.804688 L 185.777344 99.804688 C 185.503906 100.417969 185.140625 100.960938 184.890625 101.59375 C 182.65625 106.035156 180.765625 110.5 180.425781 115.574219 C 180.242188 117.976562 180.425781 120.46875 180.515625 122.871094 C 180.699219 126.15625 180.789062 129.53125 180.789062 132.839844 C 180.789062 139.070312 180.878906 146.003906 184.914062 151.078125 C 185.890625 152.324219 187.054688 153.480469 188.035156 154.726562 C 189.378906 156.335938 190.628906 158.011719 191.609375 159.890625 L 191.703125 159.890625 C 199.21875 185.515625 222.480469 165.398438 224.53125 176.882812 L 226.761719 194.058594 C 227.46875 193.355469 228.109375 192.722656 228.722656 192.019531 L 228.632812 191.65625 C 227.925781 187.464844 227.652344 183.386719 227.195312 179.195312 Z M 227.21875 179.171875 " fill-opacity="1" fill-rule="nonzero"/></g><path fill="#ae873b" d="M 206.464844 186.742188 C 205.667969 186.742188 204.847656 187.011719 204.140625 187.285156 C 203.160156 187.738281 202.273438 188.441406 201.453125 189.074219 C 199.585938 190.59375 200.289062 194.851562 197.875 198.863281 C 196.621094 200.71875 195.734375 202.238281 195.1875 204.457031 C 194.824219 206.15625 194.390625 207.925781 194.023438 209.714844 C 194.824219 209.625 195.644531 209.535156 196.441406 209.441406 C 196.988281 206.339844 197.785156 203.484375 198.671875 201.785156 C 200.632812 198.5 201.085938 198.839844 201.976562 194.851562 C 202.683594 191.726562 202.863281 189.59375 206.441406 189.164062 L 206.625 189.164062 L 206.714844 189.253906 C 210.566406 192.449219 210.292969 200.019531 209.585938 205.636719 C 210.382812 205.273438 211.203125 204.933594 212 204.570312 C 212.273438 201.898438 212.523438 199.316406 212.273438 197.277344 C 211.910156 194.171875 210.839844 186.785156 206.464844 186.785156 Z M 206.464844 186.742188 " fill-opacity="1" fill-rule="nonzero"/><path fill="#ae873b" d="M 164.042969 182.640625 C 161.8125 178.992188 156.707031 176.5 152.492188 178.449219 C 151.605469 178.902344 150.785156 179.421875 150.167969 180.148438 C 147.480469 183.003906 146.867188 187.535156 147.117188 191.273438 C 147.117188 191.726562 147.207031 192.15625 147.207031 192.699219 C 148.277344 193.765625 149.347656 194.828125 150.417969 195.804688 C 149.347656 192.765625 148.800781 189.300781 149.441406 186.898438 C 150.417969 183.070312 153.109375 178.96875 157.664062 180.394531 C 161.148438 181.550781 162.769531 183.863281 162.585938 187.511719 C 162.402344 190.613281 160.96875 198.90625 157.300781 201.128906 C 157.914062 201.492188 158.554688 201.832031 159.167969 202.285156 C 161.675781 200.425781 163.199219 197.027344 163.996094 194.285156 C 164.796875 191.429688 165.707031 185.289062 163.996094 182.640625 Z M 164.042969 182.640625 " fill-opacity="1" fill-rule="nonzero"/><g clip-path="url(#4e5901a63c)"><path fill="#ae873b" d="M 239.660156 163.699219 C 239.566406 166.644531 239.839844 169.292969 240.363281 172.058594 C 241.070312 170.019531 241.617188 167.867188 242.074219 165.738281 L 241.980469 164.945312 C 241.890625 162 242.253906 160.414062 242.960938 158.984375 C 243.054688 157.648438 243.144531 156.3125 243.144531 154.976562 L 243.144531 154.703125 C 241.183594 157.285156 239.660156 159.597656 239.660156 163.699219 Z M 239.660156 163.699219 " fill-opacity="1" fill-rule="nonzero"/></g><path fill="#ae873b" d="M 234.917969 163.15625 C 234.554688 161.453125 236.628906 158.53125 237.425781 157.195312 C 239.226562 154.339844 241.09375 151.691406 242.800781 148.925781 C 242.710938 147.679688 242.527344 146.34375 242.253906 145.097656 C 241.09375 147.316406 238.496094 152.300781 236.265625 155.15625 C 228.835938 164.308594 234.371094 163.246094 236.355469 170.902344 C 236.992188 173.394531 237.335938 176.160156 237.515625 179.082031 C 238.222656 177.746094 238.769531 176.410156 239.292969 175.070312 C 238.769531 170.972656 237.949219 167.59375 236.878906 166.257812 C 236.265625 165.464844 235.101562 164.21875 234.917969 163.15625 Z M 234.917969 163.15625 " fill-opacity="1" fill-rule="nonzero"/><g clip-path="url(#e5fbe94808)"><path fill="#ae873b" d="M 228.996094 166.53125 C 226.035156 164.742188 213.4375 165.011719 209.496094 164.832031 C 200.722656 164.46875 193.113281 152.1875 190.175781 144.984375 C 187.214844 138.230469 189.808594 132.613281 188.921875 125.769531 C 188.035156 118.65625 186.234375 114.644531 189.535156 107.621094 C 190.789062 104.855469 192.40625 102.363281 194.550781 100.234375 C 193.570312 100.054688 192.660156 99.964844 191.679688 99.964844 C 190.242188 101.820312 188.808594 103.972656 188.101562 105.308594 C 182.292969 115.890625 187.214844 121.601562 186.574219 132.183594 C 186.300781 137.167969 185.777344 140.453125 187.738281 145.253906 C 189.535156 149.785156 193.363281 156.378906 196.691406 160.027344 C 201.519531 165.285156 206.988281 167.324219 214.050781 167.414062 C 216.558594 167.503906 219.152344 167.324219 221.75 167.324219 C 224.347656 167.324219 225.875 167.414062 227.46875 168.480469 C 230.066406 170.085938 231.320312 180.214844 231.933594 188.054688 C 232.730469 187.082031 233.371094 186.105469 234.078125 185.109375 C 233.1875 176.023438 231.660156 168.207031 228.972656 166.507812 Z M 228.996094 166.53125 " fill-opacity="1" fill-rule="nonzero"/></g><g clip-path="url(#8b57fc766c)"><path fill="#ae873b" d="M 207.808594 182.117188 C 205.757812 181.847656 203.957031 181.234375 202.089844 180.328125 C 200.835938 179.714844 199.3125 178.992188 197.875 178.808594 C 196.988281 178.628906 196.167969 178.808594 195.371094 179.171875 C 194.664062 179.445312 193.84375 179.808594 193.660156 180.601562 C 193.046875 182.730469 197.144531 186.558594 195.097656 192.179688 C 193.75 195.917969 191.429688 198.929688 190.265625 202.851562 C 189.558594 205.160156 189.011719 207.472656 188.558594 209.875 L 188.558594 210.054688 C 189.261719 210.054688 190.082031 210.054688 190.882812 209.964844 C 191.335938 207.835938 191.859375 205.613281 192.5 203.460938 C 193.660156 199.453125 195.894531 196.527344 197.328125 192.699219 C 198.398438 189.933594 198.582031 188.078125 197.417969 185.402344 C 196.78125 183.976562 196.257812 182.910156 196.167969 181.394531 L 196.167969 181.03125 L 196.53125 181.03125 C 198.148438 181.210938 200.382812 181.574219 201.542969 182.820312 C 202.25 183.09375 203.070312 183.273438 203.867188 183.523438 C 203.867188 183.613281 203.957031 183.613281 204.050781 183.613281 C 204.324219 183.613281 204.753906 183.886719 204.847656 183.976562 C 206.375 184.679688 205.554688 184.859375 207.351562 184.519531 C 208.789062 184.25 210.382812 184.339844 211.636719 185.222656 C 215.03125 187.714844 214.9375 195.804688 215.304688 199.632812 C 215.394531 200.515625 215.484375 201.492188 215.667969 202.578125 C 216.464844 202.125 217.195312 201.605469 217.992188 201.152344 C 217.535156 197.140625 217.011719 193.402344 216.738281 191.363281 C 215.578125 184.429688 214.9375 183.09375 207.785156 182.117188 Z M 207.808594 182.117188 " fill-opacity="1" fill-rule="nonzero"/></g><path fill="#ae873b" d="M 178.007812 180.328125 C 174.796875 173.484375 169.695312 166.984375 162.449219 164.128906 C 156.980469 161.90625 150.988281 162.269531 145.726562 164.761719 C 141.511719 166.800781 138.027344 170.109375 135.703125 174.1875 C 136.066406 175.164062 136.5 176.136719 136.957031 177.132812 C 137.410156 175.976562 138.027344 174.824219 138.753906 173.757812 C 142.148438 168.59375 148.597656 165.125 154.679688 165.035156 C 155.660156 165.035156 156.546875 165.035156 157.460938 165.214844 C 162.652344 166.007812 167.300781 169.316406 170.695312 173.144531 C 174.730469 177.769531 178.488281 185.246094 177.324219 191.476562 L 177.324219 191.566406 L 170.171875 207.3125 C 170.878906 207.496094 171.605469 207.765625 172.3125 207.925781 L 172.769531 207.042969 C 173.75 205.003906 174.660156 202.941406 175.730469 200.8125 C 179.488281 193.695312 181.90625 188.257812 178.054688 180.351562 Z M 178.007812 180.328125 " fill-opacity="1" fill-rule="nonzero"/><path fill="#ae873b" d="M 168.53125 173.125 C 164.863281 169.566406 159.761719 167.777344 154.65625 168.046875 C 149.464844 168.320312 144.816406 170.722656 141.671875 174.824219 C 140.328125 176.679688 139.347656 178.652344 138.617188 180.78125 C 139.234375 181.847656 139.871094 183.003906 140.578125 184.066406 C 141.558594 179.445312 143.789062 174.980469 147.914062 172.332031 C 151.398438 170.109375 155.796875 169.65625 159.738281 170.902344 C 163.316406 171.96875 166.4375 174.007812 168.691406 177.042969 C 173.613281 183.703125 172.175781 192.335938 168.417969 199.203125 C 167.621094 200.71875 166.890625 202.304688 166.09375 203.914062 C 165.820312 204.367188 165.570312 204.890625 165.207031 205.34375 C 165.910156 205.703125 166.640625 205.953125 167.347656 206.226562 C 167.621094 205.773438 167.894531 205.34375 168.144531 204.890625 C 170.46875 200.789062 173.863281 194.125 174.136719 189.503906 C 174.59375 183.457031 172.972656 177.496094 168.507812 173.125 Z M 168.53125 173.125 " fill-opacity="1" fill-rule="nonzero"/><path fill="#ae873b" d="M 206.648438 198.386719 C 202.089844 195.351562 200.015625 203.734375 199.925781 208.71875 C 201.816406 208.265625 203.683594 207.742188 205.484375 207.199219 L 205.941406 206.40625 C 207.011719 204.367188 209.242188 200.085938 206.648438 198.410156 Z M 205.484375 200.605469 C 205.300781 202.644531 204.414062 204.527344 203.433594 206.292969 L 203.070312 206.996094 L 202.886719 206.292969 C 202.273438 203.890625 203.070312 201.761719 205.027344 200.335938 L 205.554688 199.882812 L 205.460938 200.585938 Z M 205.484375 200.605469 " fill-opacity="1" fill-rule="nonzero"/><path fill="#ae873b" d="M 156.09375 173.125 C 150.898438 173.03125 146.773438 175.976562 144.472656 180.507812 C 143.402344 182.457031 142.765625 184.609375 142.421875 186.832031 C 143.21875 187.894531 144.132812 189.050781 145.019531 190.027344 C 145.113281 185.585938 146.363281 180.328125 149.851562 177.472656 C 150.214844 177.109375 150.648438 176.863281 151.101562 176.589844 C 154.679688 174.640625 159.328125 175.433594 162.5625 177.65625 C 166.777344 180.507812 168.191406 185.132812 167.121094 189.933594 C 166.664062 191.816406 164.976562 196.527344 163.816406 198.023438 C 163.199219 199.972656 162.5625 201.761719 161.402344 203.460938 C 162.039062 203.824219 162.652344 204.164062 163.359375 204.4375 C 166.140625 199.542969 168.371094 195.53125 169.535156 189.574219 C 171.242188 181.03125 164.796875 173.28125 156.117188 173.125 Z M 156.09375 173.125 " fill-opacity="1" fill-rule="nonzero"/><path fill="#ae873b" d="M 191.609375 188.78125 C 192.066406 185.742188 191.15625 183.003906 189.71875 180.328125 C 188.191406 177.472656 186.597656 174.550781 186.414062 171.332031 C 186.324219 169.996094 185.960938 169.023438 185.4375 167.867188 C 181.496094 159.234375 172.109375 162.363281 170.308594 148.472656 C 168.875 137.710938 171.289062 126.40625 170.398438 115.460938 C 170.035156 111.269531 169.328125 107.007812 169.695312 102.726562 C 168.988281 103 168.257812 103.269531 167.550781 103.519531 C 167.460938 107.441406 167.824219 111.699219 168.074219 115.167969 C 168.714844 126.109375 166.640625 137.414062 167.894531 148.179688 C 168.441406 153.164062 170.035156 157.421875 173.976562 160.730469 C 176.390625 162.769531 179.96875 164.195312 181.949219 166.507812 C 182.222656 166.871094 182.472656 167.140625 182.65625 167.480469 C 183.726562 169.179688 184.183594 171.492188 184.617188 173.441406 C 185.253906 175.933594 185.867188 178.242188 187.214844 180.464844 C 190.515625 186.152344 190.425781 188.214844 187.304688 194.082031 C 186.140625 196.210938 185.34375 198.523438 184.707031 200.832031 C 183.910156 203.417969 183.273438 206.703125 182.382812 209.738281 C 183.089844 209.828125 183.910156 209.917969 184.707031 209.917969 C 184.980469 208.492188 185.34375 206.972656 185.6875 205.570312 C 186.484375 202.191406 187.644531 199.066406 189.082031 195.871094 C 190.0625 193.652344 191.222656 191.25 191.585938 188.757812 Z M 191.609375 188.78125 " fill-opacity="1" fill-rule="nonzero"/><path fill="#ae873b" d="M 177.828125 170.269531 C 175.59375 167.140625 172.996094 164.402344 169.695312 162.339844 C 168.257812 161.453125 165.753906 160.390625 164.679688 159.144531 C 162.632812 157.105469 163.15625 152.730469 163.429688 150.148438 C 164.589844 138.933594 163.792969 127.898438 163.976562 116.683594 C 164.066406 113.21875 163.882812 109.75 163.792969 106.285156 L 163.792969 105.128906 C 163.085938 105.492188 162.359375 105.832031 161.558594 106.285156 L 161.558594 106.554688 C 161.652344 109.933594 161.832031 113.308594 161.832031 116.707031 C 161.652344 127.558594 162.289062 138.503906 161.21875 149.265625 C 160.945312 152.460938 160.238281 158.601562 163.019531 161.09375 C 164.179688 162.15625 166.230469 162.949219 167.757812 163.765625 C 170.535156 165.375 172.679688 167.324219 174.636719 169.726562 C 179.195312 175.59375 185.640625 186.535156 182.15625 194.011719 C 181.265625 195.960938 179.921875 197.480469 179.011719 199.359375 C 178.03125 201.492188 177.667969 203.890625 176.777344 206.136719 C 176.503906 207.019531 176.074219 207.925781 175.707031 208.808594 C 176.414062 208.898438 177.234375 209.082031 178.03125 209.261719 C 178.125 208.988281 178.214844 208.808594 178.304688 208.558594 C 179.285156 206.429688 179.742188 204.300781 180.445312 202.058594 C 180.628906 201.511719 180.902344 200.992188 181.152344 200.449219 C 182.042969 198.589844 183.386719 196.980469 184.273438 195.101562 C 187.851562 187.988281 182.222656 176.070312 177.828125 170.269531 Z M 177.828125 170.269531 " fill-opacity="1" fill-rule="nonzero"/><g clip-path="url(#771e95b690)"><g clip-path="url(#cdb63f682c)"><g clip-path="url(#47183771d0)"><path fill="#ae873b" d="M 155.410156 156.574219 L 154.546875 157.269531 L 154.582031 155.707031 L 155.445312 155.007812 Z M 155.410156 156.574219 " fill-opacity="1" fill-rule="nonzero"/></g></g></g></svg>